<?xml version="1.0" ?><!DOCTYPE svg  PUBLIC '-//W3C//DTD SVG 1.1//EN'  'http://www.w3.org/Graphics/SVG/1.1/DTD/svg11.dtd'><svg enable-background="new 0 0 1024 1024" height="1024px" id="Layer_1" version="1.1" viewBox="0 0 1024 1024" width="1024px" xml:space="preserve" xmlns="http://www.w3.org/2000/svg" xmlns:xlink="http://www.w3.org/1999/xlink"><g><g><path clip-rule="evenodd" d="M0,192c113.299,0.117,226.603-0.203,339.896,0.732     c21.732,0.18,44.163,2.708,64.995,8.637c58.176,16.56,89.476,58.275,100.857,116.133c5.173,26.307,6.578,52.975,1.578,79.478     c-8.863,46.986-36.383,77.273-84.018,90.218c1.833,1.135,2.684,2.087,3.619,2.177c51.556,4.983,81.483,35.364,93.789,83.365     c13.738,53.609,11.419,107.473-9.609,158.828c-24.174,59.041-72.016,88.534-133.359,98.18     c-10.796,1.699-21.892,2.045-32.851,2.057C229.932,831.948,114.966,831.894,0,831.894C0,618.596,0,405.299,0,192z      M128.421,735.694c67.748,0,134.398,1.197,200.981-0.398c48.904-1.17,78.462-30.093,85.593-78.515     c7.431-50.471-15.393-91.153-60.787-106.033c-12.444-4.079-26.026-6.357-39.121-6.51c-58.636-0.682-117.284-0.297-175.928-0.297     c-3.524,0-7.047,0-10.739,0C128.421,608.457,128.421,671.63,128.421,735.694z M128.178,447.958c3.738,0,6.646,0,9.555,0     c53.938,0,107.877,0.117,161.814-0.051c26.741-0.084,45.704-13.001,56.36-37.175c10.145-23.014,10.746-47.284,5.021-71.414     c-8.052-33.946-31.12-51.332-66.313-51.333c-51.942-0.002-103.881,0-155.821,0c-3.487,0-6.972,0-10.616,0     C128.178,341.827,128.178,394.072,128.178,447.958z" fill-rule="evenodd"/><g><path clip-rule="evenodd" d="M1023.974,608.234c-107.339,0-213.207,0-320.062,0      c1.127,41.131,8.18,78.994,41.406,106.637c47.411,39.439,134.013,25.194,148.636-57.051c0.988-5.555,1.689-11.161,2.611-17.317      c42.066,0,84.219,0,127.369,0c-0.494,51.148-15.57,95.764-53.957,130.709c-34.919,31.788-77.41,47.365-122.983,55.674      c-55.056,10.035-109.042,5.599-160.773-15.94c-57.387-23.894-94.177-67.434-112.588-126.169      c-26.479-84.487-15.697-164.894,32.022-239.167c36.528-56.855,91.923-83.996,157.783-91.502      c39.071-4.454,77.858-2.6,115.93,7.858c63.214,17.361,105.264,57.461,127.116,119.062      C1020.939,521.772,1024.346,563.975,1023.974,608.234z M896.341,543.441c-2.75-33.336-11.646-63.501-41.668-81.061      c-35.321-20.661-72.895-20.811-108.423-0.547c-30.592,17.447-40.073,47.688-42.428,81.607      C768.243,543.441,831.674,543.441,896.341,543.441z" fill-rule="evenodd"/><path clip-rule="evenodd" d="M927.576,256.708c0,21.15,0,41.67,0,62.727c-85.158,0-169.887,0-255.09,0      c0-20.965,0-41.484,0-62.727C757.244,256.708,841.971,256.708,927.576,256.708z" fill-rule="evenodd"/></g></g></g></svg>