<?xml version="1.0" ?><!DOCTYPE svg  PUBLIC '-//W3C//DTD SVG 1.1//EN'  'http://www.w3.org/Graphics/SVG/1.1/DTD/svg11.dtd'><svg enable-background="new 0 0 1024 1024" height="1024px" id="Layer_1" version="1.1" viewBox="0 0 1024 1024" width="1024px" xml:space="preserve" xmlns="http://www.w3.org/2000/svg" xmlns:xlink="http://www.w3.org/1999/xlink"><g><path d="M0,544.05c0-21.337,0-42.67,0-64.006c0.593-3.2,1.2-6.395,1.779-9.597c6.098-33.67,8.529-68.518,18.883-100.824    C84.343,170.925,218.956,49.91,423.592,7.819C442.089,4.015,461.066,2.55,479.822,0c21.325,0,42.651,0,63.977,0    c22.354,3.224,44.887,5.525,67.035,9.815c278.199,53.857,460.699,328.997,402.262,606.058    c-61.053,289.45-349.508,466.767-635.016,390.352C187.008,955.085,41.232,795.378,7.73,600.197    C4.536,581.588,2.547,562.771,0,544.05z M242.304,856.138c2.506,1.885,3.295,2.496,4.103,3.081    c132.302,96.087,275.096,115.312,428.357,58.749c7.176-2.649,7.262-6.592,6.084-12.934    c-17.555-94.439-43.164-186.685-75.107-277.212c-5.271-14.94-10.934-29.742-16.766-45.555    C442.469,635.409,322.208,719.143,242.304,856.138z M524.225,435.872c-147.458,42.785-296.419,62.162-449.419,62.594    c-2.036,116.258,34.874,217.498,111.502,305.53c43.724-70,97.074-129.86,160.144-180.998    c63.207-51.252,133.424-89.564,213.058-113.123C547.477,484.637,535.959,460.48,524.225,435.872z M486.958,367.425    c-49.277-86.955-102.978-170.155-161.107-250.212C218.81,155.004,88.523,320.372,85.498,421.417    C165.091,428.086,425.99,393.246,486.958,367.425z M572.367,342.225c89.037-35.012,168.338-81.797,228.414-158.05    c-63.418-55.335-135.379-89.766-217.02-103.43c-58.195-9.74-116.116-7.897-174.693,6.459    C469.447,169.335,523.582,253.513,572.367,342.225z M606.602,407.195c11.477,26.01,22.959,51.423,33.832,77.091    c2.746,6.481,5.629,8.864,13.127,8.053c79.57-8.597,158.928-5.648,238.053,5.564c18.666,2.644,37.26,5.787,57.094,8.889    c-2.17-102.546-35.045-192.57-98.941-272.081C783.879,315.125,699.855,367.509,606.602,407.195z M756.25,874.87    c102.889-72.773,165.084-169.671,187.33-293.626c-89.959-25.783-179.936-32.476-272.562-19.062    C707.668,664.312,736.547,767.526,756.25,874.87z"/></g></svg>