<svg id="Layer_1" xmlns="http://www.w3.org/2000/svg" viewBox="0 0 72 72"><style>.st0{fill:#383838;} .st1{fill:#FFFFFF;}</style><path class="st0" d="M-.1 0H72v72H-.1z"/><path class="st1" d="M32.3 33s4.5-.3 4.5-5.7c0-5.3-3.7-7.9-8.4-7.9H12.8v29.7H28.4s9.4.3 9.4-8.8c0 .1.4-7.3-5.5-7.3zm-5-8.3h1.1s2.1 0 2.1 3.1-1.2 3.5-2.6 3.5h-8.1v-6.6h7.5zm.6 19.2h-8.2V36h8.7s3.1 0 3.1 4.1c0 3.4-2.3 3.7-3.6 3.8zM50.4 27C39 27 39 38.4 39 38.4s-.8 11.4 11.4 11.4c0 0 10.2.6 10.2-7.9h-5.2s.2 3.2-4.8 3.2c0 0-5.2.3-5.2-5.2h15.4S62.5 27 50.4 27zm-5.1 8.9s.6-4.6 5.2-4.6 4.5 4.6 4.5 4.6h-9.7zM44 21.2h12.3v3.7H44z"/></svg>