<?xml version="1.0" encoding="utf-8"?>
<!-- Generator: Adobe Illustrator 20.1.0, SVG Export Plug-In . SVG Version: 6.00 Build 0)  -->
<svg version="1.1" id="Layer_1" xmlns="http://www.w3.org/2000/svg" xmlns:xlink="http://www.w3.org/1999/xlink" x="0px" y="0px"
	 viewBox="0 0 72 72" style="enable-background:new 0 0 72 72;" xml:space="preserve">
<style type="text/css">
	.st0{fill:#383838;}
</style>
<path class="st0" d="M32.3,33c0,0,4.5-0.3,4.5-5.7c0-5.3-3.7-7.9-8.4-7.9H12.8v29.7h15.6c0,0,9.4,0.3,9.4-8.8
	C37.8,40.4,38.2,33,32.3,33z M27.3,24.7h1.1c0,0,2.1,0,2.1,3.1s-1.2,3.5-2.6,3.5h-8.1v-6.6H27.3z M27.9,43.9h-8.2V36h8.7
	c0,0,3.1,0,3.1,4.1C31.5,43.5,29.2,43.8,27.9,43.9z M50.4,27C39,27,39,38.4,39,38.4s-0.8,11.4,11.4,11.4c0,0,10.2,0.6,10.2-7.9h-5.2
	c0,0,0.2,3.2-4.8,3.2c0,0-5.2,0.3-5.2-5.2h15.4C60.8,39.9,62.5,27,50.4,27z M45.3,35.9c0,0,0.6-4.6,5.2-4.6s4.5,4.6,4.5,4.6H45.3z
	 M44,21.2h12.3v3.7H44V21.2z"/>
</svg>
