<?xml version="1.0" encoding="utf-8"?>
<!-- Generator: Adobe Illustrator 20.1.0, SVG Export Plug-In . SVG Version: 6.00 Build 0)  -->
<svg version="1.1" id="Layer_1" xmlns="http://www.w3.org/2000/svg" xmlns:xlink="http://www.w3.org/1999/xlink" x="0px" y="0px"
	 viewBox="0 0 72 72" style="enable-background:new 0 0 72 72;" xml:space="preserve">
<style type="text/css">
	.st0{fill:#383838;}
</style>
<path id="MUODtZ.tif" class="st0" d="M12.1,54V18h47.6v36H12.1z M54.4,21.4C54.3,21.4,54.3,21.4,54.4,21.4H17.9l0.2,0.2
	c3.2,3.2,6.4,6.5,9.5,9.6c2.2,2.4,4.6,4.6,6.8,6.9c0.2,0.2,0.4,0.4,0.6,0.5c0.8,0.4,1.9,0.2,2.6-0.5c5.5-5.5,11.1-11.2,16.6-16.7
	C54.4,21.5,54.4,21.4,54.4,21.4z M54.1,50.6c-0.2-0.2-11.8-12.1-11.9-12.2l-0.1,0.1L40,40.6l-0.5,0.5c-1.3,0.9-2.7,1.3-4.2,1.1
	C34,42,33,41.4,32.1,40.5c-0.7-0.7-1.4-1.4-2-2.1L30,38.2c-4,4.1-8,8.2-12,12.4C18,50.6,54.1,50.6,54.1,50.6z M27.5,36
	c-0.1-0.2-11.9-12.1-12-12.1v24.5C19.5,44.1,23.5,40,27.5,36z M44.6,36c4,4.1,7.9,8.1,11.9,12.2V24.1C52.5,28,48.6,32,44.6,36z"/>
</svg>
