<?xml version="1.0" encoding="utf-8"?>
<!-- Generator: Adobe Illustrator 20.1.0, SVG Export Plug-In . SVG Version: 6.00 Build 0)  -->
<svg version="1.1" id="Layer_1" xmlns="http://www.w3.org/2000/svg" xmlns:xlink="http://www.w3.org/1999/xlink" x="0px" y="0px"
	 viewBox="0 0 72 72" style="enable-background:new 0 0 72 72;" xml:space="preserve">
<style type="text/css">
	.st0{fill:#383838;}
</style>
<path class="st0" d="M21.5,16.3h29.8c2.8,0,5.2,2.3,5.2,5.2v29.8c0,2.8-2.3,5.2-5.2,5.2H21.5c-2.8,0-5.2-2.3-5.2-5.2V21.5
	C16.3,18.7,18.7,16.3,21.5,16.3z M45.5,20.8c-1,0-1.8,0.8-1.8,1.8v4.3c0,1,0.8,1.8,1.8,1.8H50c1,0,1.8-0.8,1.8-1.8v-4.3
	c0-1-0.8-1.8-1.8-1.8H45.5z M51.8,33.3h-3.6c0.3,1.1,0.5,2.2,0.5,3.5c0,6.7-5.6,12.1-12.4,12.1s-12.4-5.4-12.4-12.1
	c0-1.2,0.2-2.4,0.5-3.5h-3.6v16.9c0,0.8,0.7,1.6,1.6,1.6h27.9c0.8,0,1.6-0.7,1.6-1.6C51.9,50.2,51.8,33.3,51.8,33.3z M36.4,28.5
	c-4.4,0-8,3.5-8,7.8s3.6,7.8,8,7.8s8-3.5,8-7.8C44.5,32,40.8,28.5,36.4,28.5z"/>
</svg>
