<svg id="Layer_1" xmlns="http://www.w3.org/2000/svg" viewBox="0 0 72 72"><style>.st0{fill:#383838;} .st1{fill:#FFFFFF;}</style><path class="st0" d="M.1.1H72V72H.1z"/><path class="st0" d="M.1 71.9v.1H72V0H0v72h.1V.1h71.8v71.8H.1z"/><path class="st1" d="M21.5 16.3h29.8c2.8 0 5.2 2.3 5.2 5.2v29.8c0 2.8-2.3 5.2-5.2 5.2H21.5c-2.8 0-5.2-2.3-5.2-5.2V21.5c0-2.8 2.4-5.2 5.2-5.2zm24 4.5c-1 0-1.8.8-1.8 1.8v4.3c0 1 .8 1.8 1.8 1.8H50c1 0 1.8-.8 1.8-1.8v-4.3c0-1-.8-1.8-1.8-1.8h-4.5zm6.3 12.5h-3.6c.3 1.1.5 2.2.5 3.5 0 6.7-5.6 12.1-12.4 12.1s-12.4-5.4-12.4-12.1c0-1.2.2-2.4.5-3.5h-3.6v16.9c0 .8.7 1.6 1.6 1.6h27.9c.8 0 1.6-.7 1.6-1.6l-.1-16.9zm-15.4-4.8c-4.4 0-8 3.5-8 7.8s3.6 7.8 8 7.8 8-3.5 8-7.8c.1-4.3-3.6-7.8-8-7.8z"/></svg>