<?xml version="1.0" encoding="utf-8"?>
<!-- Generator: Adobe Illustrator 20.1.0, SVG Export Plug-In . SVG Version: 6.00 Build 0)  -->
<svg version="1.1" id="Layer_1" xmlns="http://www.w3.org/2000/svg" xmlns:xlink="http://www.w3.org/1999/xlink" x="0px" y="0px"
	 viewBox="0 0 72 72" style="enable-background:new 0 0 72 72;" xml:space="preserve">
<style type="text/css">
	.st0{fill:#383838;}
</style>
<path class="st0" d="M17.1,29.5h8.1v25.9h-8.1V29.5z M21.2,16.6c2.5,0,4.7,2.1,4.7,4.7c0,2.5-2.1,4.7-4.7,4.7s-4.7-2.1-4.7-4.7
	S18.6,16.6,21.2,16.6 M30.2,29.5h7.7V33H38c1.1-2.1,3.7-4.2,7.6-4.2c8.2,0,9.7,5.4,9.7,12.3v14.2h-8V42.8c0-3-0.1-6.9-4.2-6.9
	c-4.2,0-4.8,3.3-4.8,6.7v12.8h-8L30.2,29.5L30.2,29.5z"/>
</svg>
