<?xml version="1.0" encoding="utf-8"?>
<!-- Generator: Adobe Illustrator 20.1.0, SVG Export Plug-In . SVG Version: 6.00 Build 0)  -->
<svg version="1.1" id="Layer_1" xmlns="http://www.w3.org/2000/svg" xmlns:xlink="http://www.w3.org/1999/xlink" x="0px" y="0px"
	 viewBox="0 0 239.8 144" style="enable-background:new 0 0 239.8 144;" xml:space="preserve">
<style type="text/css">
	.st0{fill:#696969;stroke:#696969;stroke-width:0.75;stroke-miterlimit:10;}
</style>
<g>
	<path class="st0" d="M141.2,56.5c-0.1-0.2-1.8-1.5-2.5-1.3c-2.7,0.7-0.8,7.5,0.8,14.5c2.7-0.9,5.7-1.6,9-2.2l0.1,0.1
		c-3.3,0.6-6.3,1.3-9.1,2.2c1.1,4.8,2,9.4,1.3,12.6c-3.8,14.7-21.3,11.1-19.2,0.6c0.9-4.2,5.7-8.8,15.2-12.3l-0.5-1.8
		c-1.7-5.3-3.6-13.8,2.4-13.8c1.1,0,2.5,1.3,2.6,1.5L141.2,56.5z M136.9,70.7c-9.5,3.5-14.1,8.1-15,11.8c-2.2,9,9.7,12.5,15,6.3
		C140.2,84.7,138,74.8,136.9,70.7z"/>
	<path class="st0" d="M110.1,80.7c3.8-10.4,8.4-21.1,14.1-30.8c1.3-0.6,4.3,0.4,4.5,1.8c-6,9.3-10.6,20.6-14.5,31.8
		c3.6-2.7,7.6-5.1,12.3-7.5l-0.2,0.3c-4.7,2.4-8.7,5.1-12.3,7.7c-6.7,19.2-11,37-15.6,40.4c-4.3,3-7.4,1.1-7.7-3.3
		c-0.3-5.1,3-18.6,16.3-31.5l2.9-8.5c-5.1,5.2-9.9,5.9-11.5,4.7c-4.8-3.2,1.2-23,8.2-30.6c0.7-0.5,4.1,0,4.9,1.3
		c-5.8,7.2-12.1,25.9-8.4,28.3C103.4,85.2,105,85.7,110.1,80.7z M106.8,90.2c-13.1,13-16,26.1-15.7,30.7c0.3,2.8,1.3,4.5,2.7,4.3
		C97,124.6,100.5,109.2,106.8,90.2z"/>
	<path class="st0" d="M161.1,49.9c2.9,0.3,5.9-0.4,11.2-2.3l0.2,0.2c-5.5,1.8-7.7,2.6-11.4,2.4c-7.5,13.7-12,27.8-9.1,35.6
		c0.3,0.8,0.9,1,1.3,0.8c3.8-1.1,8.7-8.2,9.8-12l0.2,0.1c-2,5.8-7.9,13.5-13.5,12.8c-1.3-0.1-2.2-0.4-2.8-1.4
		c-3.2-6.5,1-21.1,9-36.1c-2.9-0.3-5.4-0.7-7.1-1v-0.3c1.7,0.3,4.2,0.8,7.2,1c2.4-4.4,5.2-8.7,8.2-13.1c0.6-0.2,3.6,0.6,4.1,2.1
		C165.7,42.2,163.3,45.9,161.1,49.9z"/>
	<path class="st0" d="M173.6,61c-1.1,1.1-9.2,21.7-7.5,25.9c0.1,0.4,0.5,0.7,1.1,0.7c3.8,0,9.4-7,9.8-11.5l0.2,0.1
		c-0.7,6.4-9.9,16.1-14.7,10.2c-4-4.5,4.8-25,6.2-28C170.8,58,173.8,60.5,173.6,61z M176.9,47.3c1.1,3.3-0.8,7.2-2.3,7.9
		c-0.7,0.4-3.9-1.1-3.5-2c0.9-2.1,1.1-5.8,1.1-6.8C172.2,45.6,176.7,46.7,176.9,47.3z"/>
	<path class="st0" d="M205.6,76c-1.3,6.4-7.4,15-12.5,10.1c-4.3-4,2.3-24.5,4.1-28c-3.2-0.3-9.5,5.3-11.7,8.7
		c-2.6,5.8-4.5,12.9-5.1,20.5c-0.6,1.2-4.3,1.1-5.3,0c0-10.3,6.6-31.7,15.3-36.8c0.7-0.4,4.8,0.5,4.8,2.1c-3.3,3-6.6,7.4-9.3,13.3
		c2.5-3.5,7-7,9.9-8.1c1.2-0.3,4.8-0.7,6,1.7c-0.9,1.9-6.8,21.9-5.1,26.7c0.4,0.5,0.8,0.7,1.2,0.6c3-0.9,6.6-6.6,7.3-11L205.6,76z
		 M184.8,68.2c-0.1,0.1-0.1,0.2-0.1,0.3L184.8,68.2z"/>
	<path class="st0" d="M211.5,87.3c1.8-0.2,12.3-4.4,17.1-14l0.2,0c-4,10-24.7,22.2-25.5,8.5c-0.6-8.2,6.5-22.4,14.5-24.3
		c3.8-0.9,10.2-1.3,9.9,2.2c-0.3,3-9.7,10.9-17.9,15.4c-1.4,5-1.7,9.5-0.4,11.3C209.8,86.9,210.6,87.6,211.5,87.3z M222.8,57
		c-5.4,0.4-10.6,9.4-12.9,17.6c7.7-4.3,17.7-12.5,17.5-15.6C227.1,57.4,224.4,57.1,222.8,57z"/>
	<g>
		<path class="st0" d="M88.1,88.3c-1,0-1.8-1-2.1-1.8c-4.8-7.1-4.5-18.1-4.2-22.5c1.1-13.1,6.3-28.3,15.6-45.1
			c-0.3-0.2-1.1-0.5-2-0.5c-0.9,0-1.8,0.3-2.5,1c0,0,0,0,0,0.1c0,0,0,0,0,0v0.1h-0.2c-0.2,0.2-0.4,0.5-0.6,0.8l0.2,0.1
			C79,44.3,72.3,63.7,79.4,86.9c0.8,2.6,2.1,3.9,4.1,3.9c1.8,0,4.1-1.3,6.2-3.2c-0.4,0.3-0.7,0.5-0.9,0.6
			C88.6,88.3,88.3,88.3,88.1,88.3z M60,53c-0.9,1.3-1.8,2.6-2.7,3.9C58.3,55.6,59.2,54.3,60,53z M57.3,56.9
			c-0.5,0.6-0.9,1.3-1.4,1.9C56.4,58.1,56.9,57.5,57.3,56.9z M26.2,85.1c5.1-2.1,11.9-7.1,18.8-13.9c2.9-2.8,6.8-7.1,10.9-12.5
			c-3.1,4.1-6.1,7.4-8.4,9.8C41.1,75.2,32.5,82.3,26.2,85.1z M13.8,79.8c-0.1-0.8-0.1-1.7-0.1-2.6c-0.1,1,0,2,0.1,2.8
			c0.5,3.1,2.2,5.2,4.9,5.9C16,85.1,14.3,83,13.8,79.8z"/>
		<path class="st0" d="M13.8,80c-0.1-0.9-0.2-1.8-0.1-2.8c-0.1,0.9,0,1.8,0.1,2.6c0.4,3.2,2.1,5.3,4.9,6.1
			C16,85.2,14.3,83.1,13.8,80z M63.3,27.5 M63.6,28.1 M63.3,27.5c-14.2,5.6-26.8,14-36.2,24.2C17.8,61.7,12.5,72.9,13.5,80
			c0.6,4.2,3.3,6.4,7.7,6.4c0.2,0,0.4,0,0.6,0c5.1-0.2,14.2-6.1,23.3-15.1c6-5.9,16.8-18,23.7-34C65,52.5,66,61.1,68.4,64.1
			c0.9,1.2,2.1,1.8,3.6,1.8c0.2,0,0.3,0,0.5,0l0.1,0l0-0.1c0-0.2,4.5-26.2,18.7-44.2C78.5,44.9,72.1,64.2,79.2,87
			c0.8,2.7,2.3,4.1,4.3,4.1c2.5,0,5.8-2.2,8.9-5.9c2.9-3.6,5.1-7.9,5.5-11.2l0-0.1l-0.4-0.2l0,0.2c-0.9,6.6-7.4,13.5-8.8,14.1
			c-0.2,0.1-0.4,0.1-0.6,0.1c-0.9,0-1.5-0.9-1.9-1.6c-3.4-5-4.9-13.1-4.1-22.4c1.1-13.1,6.3-28.3,15.6-45.1l0-0.1l-0.1-0.1
			c-0.3-0.3-1.2-0.7-2.3-0.7c-1,0-1.9,0.4-2.7,1c-0.1,0.1-0.1,0.1-0.1,0.1h0l0,0c-9.2,11-16.4,27.1-20.2,45.1c0,0.1,0,0.2-0.1,0.3
			c-2.3-9.9,2.9-31.7,5.6-40.3l0-0.1l-0.1,0c-0.6-0.3-1.4-0.4-2.3-0.4c-1,0-1.9,0.1-2.4,0.3l-0.3,0.1l-0.3,0.9
			c-5.1,20.1-17.9,35.7-25.1,43.2C36.6,79.6,26.2,85.9,21.9,86h-0.3c-4.3,0-7-2.2-7.5-6.3c-1-7.1,4.4-18.1,13.7-28
			c9.4-10.1,21.9-18.2,35.9-23.6 M26.2,85.1c6.2-2.8,14.9-9.8,21.3-16.5c2.4-2.5,5.3-5.8,8.4-9.8c-4.1,5.4-8.1,9.7-10.9,12.5
			C38.2,77.9,31.3,82.9,26.2,85.1z M60,53c-0.9,1.3-1.8,2.6-2.7,3.9C58.2,55.6,59.1,54.3,60,53z M92.2,20.4L92,20.3
			c0.2-0.3,0.4-0.5,0.6-0.8h0.2v-0.1c0,0,0,0,0,0c0,0,0,0,0-0.1c0.7-0.6,1.6-1,2.5-1c0.9,0,1.7,0.3,2,0.5
			c-9.3,16.8-14.5,32-15.6,45.1c-0.3,4.4-0.6,15.4,4.2,22.5c0.4,0.8,1.1,1.8,2.1,1.8c0.2,0,0.5-0.1,0.7-0.2c0.2-0.1,0.6-0.3,0.9-0.6
			c-2.1,2-4.4,3.2-6.2,3.2c-1.9,0-3.3-1.3-4.1-3.9C72.3,63.7,79,44.3,92.2,20.4z"/>
	</g>
</g>
</svg>
